<svg width="28" height="28" viewBox="0 0 28 28" fill="black">
<path fill-rule="evenodd" clip-rule="evenodd" d="M13.9749 8.34835e-05C10.6567 0.000530041 7.44691 1.1815 4.91967 3.33174C2.39243 5.48198 0.712627 8.46121 0.180751 11.7365C-0.351124 15.0118 0.299623 18.3695 2.01659 21.209C3.73355 24.0484 6.40472 26.1844 9.55227 27.2348C10.2511 27.3646 10.5506 26.9353 10.5506 26.5659V24.1899C6.66706 25.0285 5.84842 22.313 5.84842 22.313C5.57533 21.4572 5.00055 20.7299 4.23111 20.2664C2.96322 19.4078 4.33095 19.4178 4.33095 19.4178C4.77382 19.4804 5.19653 19.6433 5.5668 19.8942C5.93708 20.1451 6.24512 20.4773 6.4674 20.8654C6.8541 21.559 7.50041 22.0706 8.26424 22.2878C9.02807 22.5049 9.84687 22.4099 10.5406 22.0235C10.597 21.3151 10.9093 20.6515 11.4192 20.1566C8.32431 19.7972 5.05974 18.5992 5.05974 13.2481C5.0371 11.8583 5.55214 10.5134 6.49735 9.4943C6.06952 8.2905 6.11954 6.96847 6.63711 5.80044C6.63711 5.80044 7.80517 5.42107 10.4807 7.22807C12.7684 6.60406 15.1814 6.60406 17.4691 7.22807C20.1347 5.42107 21.3027 5.80044 21.3027 5.80044C21.8203 6.96847 21.8703 8.2905 21.4425 9.4943C22.3877 10.5134 22.9027 11.8583 22.8801 13.2481C22.8801 18.6191 19.6155 19.7972 16.5007 20.1466C16.8344 20.4848 17.0917 20.8906 17.2553 21.3366C17.4189 21.7826 17.485 22.2586 17.4491 22.7323V26.5659C17.4491 27.0252 17.6987 27.3746 18.4475 27.2348C21.5992 26.1831 24.2731 24.043 25.9898 21.1983C27.7065 18.3536 28.3536 14.9904 27.8152 11.7118C27.2768 8.43318 25.588 5.4536 23.0517 3.30736C20.5154 1.16111 17.2974 -0.0113949 13.9749 8.34835e-05V8.34835e-05Z" fill="black"></path>
</svg>